<?xml version="1.0"?>
<svg id="Layer_2" data-name="Layer 2" xmlns="http://www.w3.org/2000/svg" viewBox="0 0 388.8 259.47">
  <defs>
    
  </defs>
  <g id="Layer_1-2" data-name="Layer 1">
    <g>
      <path class="cls-1" d="M258.88,146.33c-19.14-15.95-27.46-41.12-22.5-65.47,1.66-8.14,6.52-16.47,7.42-24.54,1.7-15.19-4.9-32.83-16.3-42.89-44.45-39.26-108.44,18.39-73.48,66.71,15.28,21.11,36.83,16.49,56.93,27.21,20.17,10.75,34.16,33.03,34.94,55.98.92,26.76-18.21,39.42-3.7,69.6,26.31,54.75,115.58,17.13,89.33-43.36-15.31-35.27-47.97-22.67-72.65-43.23Z"></path>
      <path class="cls-1" d="M110.48,142.89c-11.57-11.23-19.89-29.34-20.43-45.54-.95-28.27,21.16-44.65.46-74.84C59.19-23.15-11.49,8.9,1.6,62.96c10.1,41.71,49.29,30.29,74.94,50.93,13.82,11.12,23.65,29.52,24.49,47.43,1.28,27.17-17.62,42.44-3.86,70.78,25.24,51.98,107.86,23.94,92.5-35.54-11.08-42.89-53.28-28.51-79.18-53.66Z"></path>
      <path class="cls-1" d="M370.8,12.47c-49.75-41.99-112.15,32.08-66.6,74.07,49.99,46.08,117.27-31.31,66.6-74.07Z"></path>
    </g>
  </g>
</svg>